<?xml version="1.0" encoding="UTF-8"?>
<svg xmlns="http://www.w3.org/2000/svg" xmlns:xlink="http://www.w3.org/1999/xlink" width="32pt" height="32pt" viewBox="0 0 32 32" version="1.1">
<g id="surface1">
<path style=" stroke:none;fill-rule:nonzero;fill:rgb(0%,0%,0%);fill-opacity:1;" d="M 16 0.640625 C 7.53125 0.640625 0.640625 7.53125 0.640625 16 C 0.640625 20.539062 2.621094 24.621094 5.761719 27.4375 L 5.761719 27.445312 L 5.984375 27.640625 C 6.023438 27.671875 6.066406 27.699219 6.105469 27.734375 C 6.378906 27.96875 6.664062 28.191406 6.957031 28.40625 C 7.035156 28.460938 7.113281 28.519531 7.195312 28.574219 C 7.503906 28.792969 7.820312 29 8.144531 29.191406 C 8.199219 29.226562 8.253906 29.257812 8.308594 29.289062 C 8.667969 29.496094 9.03125 29.691406 9.402344 29.867188 C 9.40625 29.871094 9.410156 29.871094 9.414062 29.875 C 10.214844 30.253906 11.054688 30.566406 11.921875 30.804688 C 11.9375 30.808594 11.953125 30.816406 11.96875 30.820312 C 12.378906 30.929688 12.796875 31.023438 13.21875 31.101562 C 13.257812 31.109375 13.296875 31.117188 13.339844 31.125 C 13.746094 31.195312 14.160156 31.253906 14.578125 31.292969 C 14.628906 31.296875 14.675781 31.296875 14.722656 31.300781 C 15.144531 31.335938 15.570312 31.359375 16 31.359375 C 16.429688 31.359375 16.855469 31.335938 17.277344 31.300781 C 17.324219 31.296875 17.375 31.296875 17.421875 31.292969 C 17.839844 31.253906 18.253906 31.195312 18.660156 31.125 C 18.703125 31.117188 18.742188 31.109375 18.78125 31.101562 C 19.203125 31.023438 19.621094 30.929688 20.03125 30.820312 C 20.046875 30.816406 20.0625 30.808594 20.078125 30.804688 C 20.945312 30.566406 21.785156 30.253906 22.585938 29.875 C 22.589844 29.871094 22.59375 29.871094 22.597656 29.867188 C 22.96875 29.691406 23.332031 29.496094 23.691406 29.289062 C 23.746094 29.253906 23.800781 29.226562 23.855469 29.191406 C 24.179688 29 24.496094 28.789062 24.804688 28.574219 C 24.886719 28.519531 24.964844 28.460938 25.042969 28.40625 C 25.335938 28.191406 25.621094 27.96875 25.894531 27.734375 C 25.933594 27.699219 25.976562 27.671875 26.015625 27.640625 L 26.238281 27.445312 L 26.238281 27.4375 C 29.378906 24.621094 31.359375 20.539062 31.359375 16 C 31.359375 7.53125 24.46875 0.640625 16 0.640625 Z M 16 16 C 13.175781 16 10.878906 13.703125 10.878906 10.878906 C 10.878906 8.058594 13.175781 5.761719 16 5.761719 C 18.824219 5.761719 21.121094 8.058594 21.121094 10.878906 C 21.121094 13.703125 18.824219 16 16 16 Z M 17.921875 17.28125 C 21.800781 17.28125 24.960938 20.4375 24.960938 24.320312 L 24.960938 26.851562 C 24.933594 26.875 24.90625 26.894531 24.878906 26.917969 C 24.625 27.125 24.367188 27.320312 24.101562 27.507812 C 24.042969 27.546875 23.984375 27.589844 23.925781 27.628906 C 23.640625 27.824219 23.347656 28.007812 23.046875 28.183594 C 22.992188 28.214844 22.9375 28.246094 22.882812 28.277344 C 22.570312 28.453125 22.25 28.617188 21.925781 28.769531 C 21.890625 28.785156 21.855469 28.800781 21.820312 28.816406 C 20.757812 29.300781 19.636719 29.648438 18.484375 29.855469 C 18.449219 29.863281 18.414062 29.871094 18.375 29.875 C 18.011719 29.9375 17.648438 29.988281 17.277344 30.019531 C 17.226562 30.023438 17.175781 30.027344 17.125 30.03125 C 16.753906 30.0625 16.378906 30.078125 16 30.078125 C 15.621094 30.078125 15.246094 30.0625 14.875 30.03125 C 14.824219 30.027344 14.773438 30.023438 14.722656 30.019531 C 14.351562 29.984375 13.988281 29.9375 13.625 29.875 C 13.585938 29.867188 13.550781 29.863281 13.515625 29.855469 C 12.363281 29.648438 11.242188 29.296875 10.179688 28.816406 C 10.144531 28.796875 10.109375 28.785156 10.074219 28.769531 C 9.75 28.617188 9.429688 28.453125 9.117188 28.277344 C 9.0625 28.246094 9.007812 28.214844 8.953125 28.179688 C 8.652344 28.007812 8.359375 27.824219 8.074219 27.628906 C 8.015625 27.589844 7.957031 27.546875 7.898438 27.503906 C 7.632812 27.316406 7.375 27.125 7.121094 26.917969 C 7.09375 26.894531 7.066406 26.875 7.039062 26.851562 L 7.039062 24.320312 C 7.039062 20.4375 10.199219 17.28125 14.078125 17.28125 Z M 26.238281 25.648438 L 26.238281 24.320312 C 26.238281 20.304688 23.382812 16.949219 19.597656 16.167969 C 21.285156 15.015625 22.398438 13.074219 22.398438 10.878906 C 22.398438 7.351562 19.527344 4.480469 16 4.480469 C 12.472656 4.480469 9.601562 7.351562 9.601562 10.878906 C 9.601562 13.074219 10.714844 15.015625 12.402344 16.167969 C 8.617188 16.949219 5.761719 20.304688 5.761719 24.320312 L 5.761719 25.648438 C 3.382812 23.125 1.921875 19.730469 1.921875 16 C 1.921875 8.234375 8.234375 1.921875 16 1.921875 C 23.765625 1.921875 30.078125 8.234375 30.078125 16 C 30.078125 19.730469 28.617188 23.125 26.238281 25.648438 Z M 26.238281 25.648438 "/>
</g>
</svg>
